<svg width="243" height="72" viewBox="0 0 243 72" fill="none" xmlns="http://www.w3.org/2000/svg">
<path d="M64.266 0H60.769V18.3253H73.9478V15.0155H64.266V0Z" fill="#FF5C00"/>
<path d="M92.9097 15.1516H80.9727V10.5636H91.4453V7.38657H80.9727V3.17374H92.9097V0H77.4726V18.3253H92.9097V15.1516Z" fill="#FF5C00"/>
<path d="M114.343 18.3253L121.516 0H117.843L113.598 11.4965L113.188 12.5489C113.049 12.9141 112.919 13.2626 112.805 13.5913C112.69 13.92 112.588 14.1889 112.496 14.4046H112.347C112.264 14.1723 112.162 13.8868 112.038 13.5515L111.652 12.4958C111.519 12.1306 111.387 11.7886 111.257 11.4699L107.021 0H103.147L110.321 18.3253H114.343Z" fill="#FF5C00"/>
<path d="M140.206 15.1516H128.266V10.5636H138.742V7.38657H128.266V3.17374H140.206V0H124.766V18.3253H140.206V15.1516Z" fill="#FF5C00"/>
<path d="M147.951 8.16341C147.951 7.66544 147.951 7.21062 147.951 6.80229C147.951 6.39395 147.951 6.07193 147.951 5.84286H148.099C148.282 6.07193 148.538 6.40723 148.869 6.8388C149.199 7.27038 149.505 7.66212 149.795 7.99742L158.136 18.322H161.352V0H158.004V10.215C158.004 10.5172 158.004 10.879 158.004 11.2575C158.004 11.6359 158.022 12.0044 158.041 12.3231H157.865C157.732 12.1273 157.556 11.8949 157.358 11.6293C157.16 11.3637 156.944 11.1014 156.74 10.8425C156.536 10.5835 156.354 10.3744 156.206 10.215L147.902 0H144.599V18.3253H147.951V8.16341Z" fill="#FF5C00"/>
<path d="M181.408 0H164.902V3.27997H171.405V18.3253H174.905V3.27997H181.408V0Z" fill="#FF5C00"/>
<path d="M7.57179 27.4216L0 45.7437H3.59899L5.08802 42.0122H14.0253L15.5143 45.7437H19.3357L11.7392 27.4216H7.57179ZM6.33608 38.9181L8.18964 34.194C8.29159 33.965 8.41516 33.6396 8.56345 33.2213C8.71173 32.803 8.87237 32.3648 9.0361 31.8934C9.19983 31.422 9.34503 31.0203 9.48096 30.6651H9.62924C9.67867 30.8078 9.76208 31.0336 9.87947 31.329C9.99686 31.6245 10.1143 31.993 10.2378 32.325C10.3614 32.657 10.4881 33.0354 10.6116 33.3641C10.7352 33.6927 10.8371 33.9583 10.9206 34.1509L12.7587 38.875L6.33608 38.9181Z" fill="#FF5C00"/>
<path d="M11.5168 26.0072L9.06084 22.4584H5.43713V22.5646L8.76118 26.0072H11.5168Z" fill="#FF5C00"/>
<path d="M33.3085 27.4216H29.8083V45.7437H42.9902V42.4371H33.3085V27.4216Z" fill="#FF5C00"/>
<path d="M56.4656 27.4216H52.2982L44.7264 45.7437H48.3254L49.8144 42.0122H58.7517L60.2407 45.7437H64.0621L56.4656 27.4216ZM51.0563 38.9181L52.9099 34.194C53.0087 33.965 53.1323 33.6396 53.2806 33.2213C53.4289 32.803 53.5895 32.3648 53.7532 31.8934C53.917 31.422 54.0622 31.0203 54.1981 30.6651H54.3711C54.4205 30.8078 54.5008 31.0336 54.6182 31.329C54.7356 31.6245 54.853 31.993 54.9766 32.325C55.1002 32.657 55.2268 33.0354 55.3504 33.3641C55.474 33.6927 55.5759 33.9583 55.6593 34.1509L57.5129 38.875L51.0563 38.9181Z" fill="#FF5C00"/>
<path d="M74.5378 45.7437H78.0349V38.4368H87.7166V35.263H78.0349V30.5954H88.7577V27.4216H74.5378V45.7437Z" fill="#FF5C00"/>
<path d="M108.529 36.2356C109.036 35.2914 109.297 34.2182 109.286 33.1283C109.302 32.1189 109.098 31.1194 108.69 30.2102C108.295 29.3593 107.673 28.6542 106.904 28.1851C105.965 27.6503 104.911 27.3925 103.849 27.4381H92.6317V45.7602H96.1318V39.0774H102.783L105.909 45.7436H109.808L106.234 38.3835C107.192 37.9478 107.996 37.1954 108.529 36.2356ZM105.066 35.1899C104.824 35.448 104.533 35.648 104.214 35.7768C103.894 35.9055 103.553 35.9601 103.212 35.9368H96.1318V30.5953H103.203C103.678 30.5793 104.15 30.6839 104.581 30.9007C104.941 31.0924 105.237 31.3999 105.427 31.7804C105.627 32.2157 105.724 32.6965 105.712 33.1814C105.747 33.9156 105.516 34.636 105.066 35.1899Z" fill="#FF5C00"/>
<path d="M131.251 45.7437L123.657 27.4216H119.487L111.915 45.7437H115.514L117.006 42.0122H125.94L127.429 45.7437H131.251ZM118.245 38.9181L120.098 34.194C120.197 33.965 120.321 33.6396 120.469 33.2213C120.617 32.803 120.778 32.3648 120.942 31.8934C121.105 31.422 121.251 31.0203 121.39 30.6651H121.538C121.587 30.8078 121.671 31.0336 121.785 31.329C121.899 31.6245 122.023 31.993 122.146 32.325C122.27 32.657 122.394 33.0354 122.517 33.3641C122.641 33.6927 122.746 33.9583 122.826 34.1509L124.661 38.875L118.245 38.9181Z" fill="#FF5C00"/>
<path d="M147.933 37.6367C147.933 37.9388 147.933 38.3006 147.933 38.6758C147.933 39.0509 147.951 39.4227 147.97 39.7448H147.794C147.661 39.5489 147.485 39.3165 147.287 39.0509C147.089 38.7853 146.873 38.5198 146.669 38.2641C146.465 38.0085 146.283 37.796 146.135 37.6367L137.828 27.4216H134.528V45.7437H137.88V35.5817C137.88 35.0837 137.88 34.6323 137.88 34.2239C137.88 33.8156 137.88 33.4936 137.88 33.2612H138.028C138.211 33.4936 138.467 33.8255 138.798 34.2571C139.128 34.6887 139.434 35.0771 139.724 35.4157L148.065 45.737H151.281V27.4216H147.933V37.6367Z" fill="#FF5C00"/>
<path d="M167.948 49.6944C168.164 49.3775 168.273 48.9912 168.257 48.5989C168.28 48.1915 168.155 47.7904 167.908 47.4801C167.653 47.1963 167.333 46.9891 166.981 46.8792C166.566 46.7414 166.136 46.6654 165.702 46.6535L165.798 46.036C167.036 45.9802 168.257 45.7112 169.415 45.2392C170.626 44.7569 171.684 43.9154 172.468 42.8125C173.227 41.6616 173.614 40.2751 173.57 38.8652H170.172C170.194 39.6592 169.967 40.4381 169.527 41.0762C169.055 41.7122 168.42 42.1855 167.701 42.4373C166.805 42.7596 165.865 42.9135 164.92 42.8921C163.841 42.9318 162.767 42.7047 161.782 42.2282C160.947 41.7929 160.264 41.0821 159.832 40.1998C159.36 39.1781 159.13 38.0468 159.162 36.9065V36.2658C159.131 35.1383 159.361 34.0202 159.832 33.0124C160.27 32.1345 160.951 31.4253 161.782 30.984C162.755 30.4939 163.822 30.2563 164.896 30.2901C165.813 30.2706 166.725 30.4292 167.59 30.7582C168.298 31.0236 168.922 31.5003 169.388 32.1326C169.832 32.78 170.059 33.5697 170.033 34.3735H173.533C173.577 32.9502 173.186 31.5507 172.418 30.3897C171.632 29.2802 170.568 28.4339 169.35 27.9497C167.936 27.3761 166.432 27.0956 164.92 27.1231C161.928 27.1231 159.62 27.9231 157.997 29.5233C156.375 31.1234 155.563 33.4805 155.563 36.5945C155.563 38.7258 155.923 40.4963 156.644 41.9062C157.35 43.2997 158.461 44.4063 159.808 45.0567C161.083 45.655 162.452 45.9928 163.842 46.0526L163.533 47.9316H164.924C165.195 47.9093 165.468 47.9595 165.717 48.0777C165.794 48.1301 165.855 48.2039 165.895 48.2911C165.934 48.3783 165.951 48.4756 165.943 48.5723C165.954 48.6826 165.932 48.7938 165.88 48.8898C165.829 48.9858 165.75 49.0618 165.656 49.1068C165.406 49.207 165.14 49.2521 164.874 49.2396H162.069V50.5211C162.524 50.6159 162.984 50.6824 163.447 50.7202C163.969 50.7634 164.469 50.7866 164.948 50.7866C165.323 50.7864 165.697 50.7553 166.067 50.6937C166.434 50.6321 166.792 50.5205 167.132 50.3617C167.454 50.2197 167.735 49.9896 167.948 49.6944Z" fill="#FF5C00"/>
<path d="M183.573 27.4216L176.005 45.7437H179.604L181.093 42.0122H190.027L191.516 45.7437H195.34L187.744 27.4216H183.573ZM182.338 38.9181L184.191 34.194C184.29 33.965 184.414 33.6396 184.565 33.2213L185.035 31.8934C185.201 31.4286 185.344 31.0203 185.483 30.6651H185.631C185.68 30.8078 185.764 31.0336 185.878 31.329C185.992 31.6245 186.116 31.993 186.239 32.325C186.363 32.657 186.487 33.0354 186.61 33.3641C186.734 33.6927 186.839 33.9583 186.919 34.1509L188.754 38.9181H182.338Z" fill="#FF5C00"/>
<path d="M202.115 27.4216H198.615V45.747H202.115V27.4216Z" fill="#FF5C00"/>
<path d="M220.694 36.5444C220.079 36.1219 219.415 35.7872 218.72 35.5484C217.991 35.2928 217.24 35.0704 216.462 34.8845C215.683 34.6986 214.917 34.5292 214.191 34.3799C213.465 34.2305 212.795 34.0479 212.217 33.8852C211.72 33.7488 211.249 33.5183 210.827 33.2046C210.666 33.0889 210.534 32.9323 210.443 32.7487C210.352 32.5652 210.305 32.3603 210.305 32.1523C210.306 31.9554 210.35 31.7616 210.432 31.5855C210.514 31.4094 210.632 31.2558 210.777 31.1364C211.198 30.7977 211.687 30.5702 212.205 30.4724C213.001 30.3036 213.812 30.2268 214.624 30.2434C215.319 30.2312 216.013 30.3262 216.684 30.5256C217.204 30.6691 217.688 30.9344 218.102 31.3024C218.264 31.4415 218.395 31.6177 218.485 31.8182C218.576 32.0186 218.623 32.2383 218.624 32.461V32.793H222.05V32.4079C222.077 31.6178 221.906 30.8345 221.554 30.1401C221.202 29.4456 220.683 28.8655 220.051 28.4606C219.316 27.9865 218.51 27.6498 217.67 27.4647C216.638 27.2214 215.584 27.1045 214.528 27.1161C213.445 27.1041 212.364 27.2154 211.303 27.4481C210.434 27.6332 209.599 27.9696 208.831 28.444C208.193 28.8392 207.656 29.3981 207.268 30.0707C206.895 30.7534 206.706 31.5337 206.721 32.3249C206.699 33.1178 206.88 33.9019 207.243 34.5923C207.589 35.2129 208.065 35.7381 208.634 36.1261C209.251 36.5444 209.914 36.879 210.608 37.122C211.35 37.3954 212.109 37.6172 212.878 37.786L215.136 38.2806C215.803 38.4233 216.462 38.605 217.11 38.8251C217.614 38.9837 218.085 39.2415 218.501 39.5853C218.665 39.7306 218.796 39.9145 218.884 40.1228C218.972 40.3312 219.014 40.5585 219.007 40.7871C219.009 41.0675 218.931 41.3418 218.785 41.5739C218.625 41.8268 218.414 42.0369 218.167 42.188C217.859 42.3737 217.53 42.5165 217.188 42.613C216.778 42.7209 216.36 42.792 215.94 42.8254C215.457 42.8801 214.973 42.9067 214.488 42.9051C213.645 42.9194 212.804 42.8247 211.982 42.6229C211.376 42.4948 210.811 42.2009 210.342 41.7697C210.158 41.5893 210.012 41.3686 209.913 41.1223C209.815 40.876 209.768 40.61 209.773 40.3422C209.769 40.2405 209.769 40.1386 209.773 40.0368C209.776 39.9601 209.789 39.8841 209.811 39.8111H206.31C206.31 39.8642 206.31 39.9306 206.31 40.0102C206.306 40.0854 206.306 40.1608 206.31 40.236C206.269 41.1628 206.475 42.0831 206.903 42.8887C207.332 43.6943 207.965 44.3519 208.729 44.7841C209.546 45.2634 210.431 45.5922 211.349 45.7568C212.389 45.9578 213.444 46.0567 214.5 46.0523C215.916 46.0734 217.329 45.8812 218.695 45.4813C219.796 45.1794 220.792 44.5405 221.562 43.6421C222.248 42.7956 222.591 41.6735 222.591 40.2659C222.613 39.492 222.438 38.7263 222.084 38.0516C221.734 37.4416 221.259 36.926 220.694 36.5444Z" fill="#FF5C00"/>
<path d="M242.177 30.5954V27.4216H226.737V45.7437H242.177V42.5699H230.237V37.9819H240.713V34.8082H230.237V30.5954H242.177Z" fill="#FF5C00"/>
<path d="M60.769 70.702H61.7081V67.7375H65.5728V66.8743H61.7081V64.7629H65.9342V63.9031H60.769V70.702Z" fill="#FF5C00"/>
<path d="M69.042 63.9031L66.1813 70.712H67.1606L67.8341 69.0521H71.362L72.0448 70.712H73.0673L70.2097 63.913L69.042 63.9031ZM68.1863 68.2188L69.042 66.1439L69.1995 65.7323L69.3942 65.231C69.4621 65.055 69.5208 64.899 69.5703 64.7596H69.6413L69.7587 65.0916C69.805 65.2177 69.8514 65.3472 69.9008 65.4767C69.9502 65.6061 69.9966 65.7356 70.0429 65.8551C70.0893 65.9746 70.1294 66.0676 70.1603 66.1307L71.0068 68.2055L68.1863 68.2188Z" fill="#FF5C00"/>
<path d="M79.6845 67.4653C79.4916 67.3209 79.2727 67.2214 79.0419 67.1732V67.1333C79.2463 67.0643 79.4355 66.9514 79.598 66.8014C79.7587 66.6501 79.8854 66.4617 79.9687 66.2503C80.0605 66.0254 80.1068 65.7821 80.1046 65.5365C80.1109 65.2294 80.0359 64.9266 79.8884 64.6634C79.7372 64.4154 79.5227 64.2195 79.2706 64.099C78.9782 63.9632 78.6622 63.8964 78.3438 63.9032H74.4111V70.7121H78.3314C78.6712 70.718 79.0089 70.6537 79.3262 70.5229C79.6098 70.406 79.8535 70.1986 80.0243 69.9286C80.212 69.617 80.3048 69.2504 80.29 68.8796C80.2975 68.5886 80.2414 68.2998 80.1263 68.0363C80.0267 67.8087 79.8746 67.6121 79.6845 67.4653ZM75.3595 64.763H78.1584C78.4141 64.7498 78.6659 64.8345 78.8689 65.002C78.9625 65.0965 79.0349 65.2124 79.0809 65.3412C79.1269 65.47 79.1453 65.6082 79.1346 65.7457C79.139 65.9415 79.0896 66.1343 78.9925 66.3001C78.8974 66.4584 78.7639 66.5858 78.6064 66.6686C78.432 66.7581 78.2404 66.8025 78.0472 66.7981H75.3441L75.3595 64.763ZM79.0296 69.5867C78.8073 69.7647 78.5342 69.8539 78.2573 69.839H75.3595V67.6479H78.2109C78.423 67.6407 78.6339 67.6838 78.8288 67.7741C78.9886 67.8508 79.1209 67.9813 79.2057 68.1459C79.2976 68.3351 79.3423 68.5467 79.3354 68.7601C79.3468 68.9144 79.3245 69.0695 79.2704 69.213C79.2162 69.3565 79.1316 69.4845 79.0234 69.5867H79.0296Z" fill="#FF5C00"/>
<path d="M87.627 67.1002C87.8342 66.7454 87.9415 66.3338 87.9359 65.915C87.9415 65.5576 87.8685 65.2039 87.7228 64.8826C87.5835 64.5795 87.3615 64.3293 87.0864 64.1655C86.7579 63.9781 86.3891 63.8876 86.0175 63.9032H81.9675V70.7121H82.9097V68.0264H85.8321L87.0678 70.7121H88.112L86.7558 67.8472C87.1158 67.7098 87.4225 67.4468 87.627 67.1002ZM85.8507 67.1633H82.9097V64.7631H85.8507C86.064 64.7559 86.2759 64.8037 86.4685 64.9025C86.6318 64.989 86.7658 65.1283 86.8516 65.3009C86.9431 65.4938 86.9877 65.7085 86.9813 65.925C86.9931 66.258 86.8821 66.5825 86.6724 66.828C86.5645 66.9419 86.4357 67.0305 86.2943 67.0882C86.1528 67.146 86.0018 67.1715 85.8507 67.1633Z" fill="#FF5C00"/>
<path d="M90.7039 63.9031H89.7617V70.7054H90.7039V63.9031Z" fill="#FF5C00"/>
<path d="M97.973 64.1785C96.741 63.6518 95.3681 63.6518 94.1361 64.1785C93.6212 64.4237 93.1895 64.8342 92.9004 65.3537C92.6169 65.9569 92.4692 66.6233 92.4692 67.2991C92.4692 67.9749 92.6169 68.6412 92.9004 69.2445C93.1874 69.7674 93.6195 70.1806 94.1361 70.4263C94.7418 70.7044 95.3961 70.8391 96.0545 70.8214H96.314L96.5612 70.8015L97.7444 71.9999H99.0079L97.5868 70.5923C98.1978 70.3935 98.7302 69.9825 99.1006 69.4238C99.4776 68.7963 99.6643 68.0586 99.635 67.3124C99.6571 66.6331 99.5088 65.96 99.2056 65.3636C98.9188 64.841 98.4881 64.4269 97.973 64.1785ZM98.665 67.412C98.674 67.8034 98.6099 68.1929 98.4765 68.5573C98.3566 68.8654 98.169 69.1376 97.9297 69.3507C97.6878 69.564 97.4067 69.7201 97.1049 69.8089C96.4127 70.0081 95.684 70.0081 94.9918 69.8089C94.6903 69.7194 94.4093 69.5633 94.167 69.3507C93.93 69.1369 93.7445 68.8647 93.6264 68.5573C93.493 68.1929 93.4289 67.8034 93.4379 67.412V67.1928C93.4289 66.8003 93.493 66.4098 93.6264 66.0442C93.7412 65.7348 93.9272 65.4618 94.167 65.2508C94.4101 65.0394 94.6908 64.8835 94.9918 64.7926C95.6845 64.5978 96.4122 64.5978 97.1049 64.7926C97.4062 64.8828 97.687 65.0388 97.9297 65.2508C98.1695 65.4618 98.3555 65.7348 98.4703 66.0442C98.6037 66.4098 98.6678 66.8003 98.6588 67.1928L98.665 67.412Z" fill="#FF5C00"/>
<path d="M106.36 67.9566C106.378 68.2319 106.339 68.508 106.247 68.7656C106.155 69.0231 106.011 69.2557 105.826 69.4472C105.401 69.8128 104.865 69.9951 104.321 69.9584C103.781 69.9952 103.247 69.8127 102.826 69.4472C102.644 69.254 102.503 69.0209 102.412 68.7636C102.321 68.5063 102.283 68.231 102.301 67.9566V63.9031H101.374V67.9068C101.358 68.464 101.473 69.0166 101.708 69.5136C101.925 69.956 102.274 70.307 102.7 70.5095C103.754 70.9477 104.923 70.9477 105.977 70.5095C106.405 70.3073 106.758 69.9566 106.978 69.5136C107.216 69.0175 107.332 68.4644 107.315 67.9068V63.9031H106.388L106.36 67.9566Z" fill="#FF5C00"/>
<path d="M109.32 70.702H114.939V69.8389H110.262V67.6478H114.414V66.788H110.262V64.7629H114.939V63.9031H109.32V70.702Z" fill="#FF5C00"/>
<path d="M113.583 62.0671H112.533L111.6 63.3751H112.375L113.583 62.107V62.0671Z" fill="#FF5C00"/>
<path d="M119.505 70.702H125.125V69.8389H120.447V67.6478H124.599V66.788H120.447V64.7629H125.125V63.9031H119.505V70.702Z" fill="#FF5C00"/>
<path d="M131.97 68.2553C131.97 68.3715 131.97 68.5043 131.97 68.6504C131.97 68.7965 131.97 68.9293 131.97 69.0455H131.912L131.729 68.7998L131.519 68.5209C131.461 68.4437 131.398 68.3705 131.331 68.3018L127.815 63.9031H126.889V70.712H127.815V66.3398C127.815 66.1738 127.815 66.0078 127.815 65.8584C127.815 65.7091 127.815 65.5729 127.815 65.4667H127.871C127.939 65.5597 128.028 65.6858 128.146 65.8385C128.263 65.9912 128.371 66.1307 128.47 66.2402L132.026 70.712H132.882V63.9031H131.97V68.2553Z" fill="#FF5C00"/>
<path d="M137.726 70.702H138.668V67.7375H142.533V66.8743H138.668V64.7629H142.891V63.9031H137.726V70.702Z" fill="#FF5C00"/>
<path d="M150.092 67.1002C150.299 66.7454 150.406 66.3338 150.401 65.915C150.406 65.5581 150.334 65.2048 150.191 64.8826C150.05 64.5799 149.827 64.3299 149.551 64.1655C149.223 63.9781 148.854 63.8876 148.482 63.9032H144.432V70.7121H145.375V68.0264H148.285L149.52 70.7121H150.565L149.208 67.8472C149.573 67.7124 149.884 67.4492 150.092 67.1002ZM148.316 67.1633H145.375V64.7631H148.316C148.529 64.7559 148.741 64.8037 148.933 64.9025C149.097 64.989 149.231 65.1283 149.317 65.3009C149.408 65.4938 149.453 65.7085 149.446 65.925C149.458 66.258 149.347 66.5825 149.137 66.828C149.029 66.9419 148.901 67.0305 148.759 67.0882C148.618 67.146 148.467 67.1715 148.316 67.1633Z" fill="#FF5C00"/>
<path d="M154.368 63.9031L151.51 70.712H152.486L153.16 69.0521H156.684L157.367 70.712H158.39L155.532 63.913L154.368 63.9031ZM153.512 68.2188L154.368 66.1439L154.516 65.7588L154.71 65.2576C154.778 65.0816 154.837 64.9256 154.887 64.7861H154.958L155.075 65.1181C155.121 65.2443 155.168 65.3737 155.217 65.5032C155.266 65.6327 155.313 65.7622 155.359 65.8817C155.406 66.0012 155.446 66.0941 155.477 66.1572L156.323 68.2321L153.512 68.2188Z" fill="#FF5C00"/>
<path d="M164.794 68.2553C164.794 68.3715 164.794 68.5043 164.794 68.6504C164.794 68.7965 164.794 68.9293 164.794 69.0455H164.738C164.689 68.9757 164.63 68.8927 164.559 68.7998L164.346 68.5209C164.288 68.4429 164.225 68.3697 164.157 68.3018L160.642 63.9031H159.715V70.712H160.642V66.3398C160.642 66.1738 160.642 66.0078 160.642 65.8584C160.642 65.7091 160.642 65.5729 160.642 65.4667H160.697L160.972 65.8385C161.09 65.9946 161.198 66.1307 161.281 66.2402L164.849 70.712H165.705V63.9031H164.794V68.2553Z" fill="#FF5C00"/>
<path d="M172.857 69.2044C172.656 69.4741 172.385 69.673 172.078 69.7754C171.695 69.905 171.294 69.9667 170.892 69.958C170.447 69.9685 170.005 69.878 169.595 69.6924C169.237 69.5194 168.939 69.2288 168.745 68.8625C168.527 68.4192 168.421 67.9226 168.436 67.4217V67.1926C168.422 66.6928 168.528 66.1976 168.745 65.7551C168.935 65.3859 169.231 65.0925 169.588 64.9185C169.991 64.7284 170.428 64.6355 170.867 64.6463C171.269 64.6376 171.67 64.6993 172.054 64.8289C172.36 64.9313 172.632 65.1288 172.835 65.3966C173.032 65.6843 173.131 66.0358 173.116 66.3925H174.043C174.062 65.8746 173.921 65.3645 173.641 64.9418C173.357 64.5402 172.97 64.2377 172.526 64.072C171.994 63.8723 171.434 63.7756 170.87 63.7865C169.786 63.7865 168.952 64.0819 168.362 64.6795C167.772 65.2771 167.475 66.1502 167.475 67.3055C167.454 67.9802 167.587 68.6504 167.861 69.2575C168.115 69.7731 168.519 70.1857 169.011 70.4327C169.594 70.7097 170.227 70.8435 170.864 70.8245C171.423 70.8357 171.979 70.7379 172.505 70.5356C172.947 70.3707 173.337 70.0722 173.626 69.6758C173.911 69.2568 174.055 68.7468 174.037 68.2284H173.11C173.13 68.575 173.041 68.9187 172.857 69.2044Z" fill="#FF5C00"/>
<path d="M175.789 70.702H181.408V69.8389H176.731V67.6478H180.883V66.788H176.731V64.7629H181.408V63.9031H175.789V70.702Z" fill="#FF5C00"/>
</svg>
