<svg width="363" height="57" viewBox="0 0 363 57" fill="none" xmlns="http://www.w3.org/2000/svg">
<path fill-rule="evenodd" clip-rule="evenodd" d="M103.765 28.7275V31.8088C103.765 36.082 104.908 37.7277 108.238 37.7277V38.5192H90.3478V37.7242C94.0244 37.7242 94.8194 36.0832 94.8194 31.8053V25.594C94.8194 21.3196 93.9258 19.0333 91.1427 18.8348V18.0398C98.0504 18.0398 102.97 13.6668 102.97 13.6668H103.765V28.7275ZM103.765 5.22255C103.745 6.58636 103.189 7.88741 102.217 8.84464C101.245 9.80187 99.9361 10.3384 98.5721 10.3384C97.2081 10.3384 95.8989 9.80187 94.9273 8.84464C93.9556 7.88741 93.3995 6.58636 93.3792 5.22255C93.3792 2.3397 95.7142 0 98.5472 0C99.9315 0.00123049 101.259 0.552006 102.237 1.53129C103.215 2.51057 103.765 3.83825 103.765 5.22255ZM46.1174 13.6703C42.5394 13.6703 39.9548 15.5585 38.7629 18.0433C36.9733 14.565 33.1469 13.6703 29.5213 13.6668C24.9998 13.6668 23.0117 15.4053 21.7687 16.6483V13.6668H20.9737C20.9737 13.6668 16.0541 18.0398 9.19633 18.0398V18.8348C11.9295 19.0332 12.8243 21.3195 12.8243 25.5939V31.8053C12.8243 35.8347 11.977 37.7241 9.34256 37.7241V38.5191H25.2992V37.7241C22.6659 37.7241 21.7711 35.8301 21.7711 31.8053V21.966C21.7711 17.2947 23.7092 15.5051 26.2439 15.5051C28.8285 15.5051 30.8153 17.3446 30.8153 21.3195V31.8053C30.8153 35.8347 29.967 37.7241 27.3337 37.7241V38.5191H43.2334V37.723C40.6465 37.723 39.7517 35.8289 39.7517 31.8041V24.5494C39.7517 18.9833 40.1486 16.0018 43.0814 15.6038C46.3159 15.2057 47.5577 18.6317 47.9557 21.7652L48.9492 31.8041C49.497 36.9222 50.9372 41.5946 53.5717 45.1727C49.9279 46.293 46.1959 47.7222 42.4182 49.1688L42.4181 49.1688L42.418 49.1689L42.418 49.1689L42.4179 49.1689L42.4179 49.1689L42.4178 49.1689L42.4178 49.169L42.4177 49.169L42.4176 49.169L42.4175 49.1691L41.6945 49.4459C32.8487 52.8254 23.6048 56.2038 14.0138 56.2038C12.5749 56.2064 11.1406 56.0397 9.74063 55.7071C5.86434 54.5152 5.36762 52.5771 5.76453 51.2842C6.16261 49.9426 8.15066 48.3526 9.74063 49.8428C11.7287 46.7626 9.64082 43.7312 7.0574 42.8863C3.13353 41.7478 0.0499043 44.1328 0 48.1089C0 51.8355 3.57803 55.4135 9.0942 56.4035C10.5356 56.8011 12.1755 57 14.0138 57C23.8044 57 33.097 53.6204 41.9928 50.2408L42.7996 49.9301C46.6486 48.4471 50.4484 46.983 54.1184 45.8678C57.2484 49.6977 61.8698 52.1349 68.3307 52.1349C70.8653 52.1349 72.8035 51.5883 74.0453 50.6946C75.3393 49.8022 75.9358 48.6079 75.7861 47.365C75.6364 46.122 74.7428 44.9289 73.2514 44.0852C71.81 43.2392 69.6734 42.6925 66.9902 42.6925C64.8536 42.6925 62.717 42.9409 60.5305 43.3378C59.0392 39.0147 58.1943 33.5484 57.5478 28.6276L56.8515 22.6646C56.1551 18.2417 53.7702 13.6703 46.1174 13.6703ZM66.8405 51.1902C64.0563 50.3999 62.1692 47.7108 60.8264 44.1328C62.9143 43.7417 64.9511 43.4875 66.9902 43.4875C69.5748 43.4875 71.5617 44.0341 72.8545 44.7792C74.1962 45.5742 74.8913 46.5189 74.9911 47.4625C75.0886 48.3573 74.6882 49.252 73.5985 49.9971C72.5087 50.7422 70.7678 51.2888 68.3307 51.2888C67.8325 51.2842 67.3349 51.2513 66.8405 51.1902ZM84.1851 23.4097L84.0853 22.6646C83.2404 17.1485 81.4021 13.6702 70.9628 13.6702C64.3035 13.6702 61.4705 17.6951 62.4651 21.3729C63.7569 26.144 71.2112 24.0562 69.9195 19.1365C67.5832 19.1365 67.0366 18.0932 67.0865 16.95C67.0865 15.8069 67.885 14.4652 70.9164 14.4652C74.0681 14.4652 74.4911 17.8669 74.7706 20.1146L74.7706 20.115L74.7707 20.1157L74.7709 20.1171C74.7953 20.3135 74.8186 20.501 74.8426 20.6766L74.9412 21.2232C75.2988 24.3529 72.3083 24.7978 68.9093 25.3034C64.7521 25.9219 59.9839 26.6312 59.9839 32.4552C59.9839 37.2263 64.3569 38.9149 68.7798 38.9149C73.8633 38.9149 76.3765 36.2613 76.8113 35.8022C76.8525 35.7587 76.8751 35.7349 76.8794 35.7349C79.5139 41.1014 89.1048 38.4182 89.7013 36.8282V36.2317C89.7013 36.2317 86.2718 38.518 85.03 30.9638L84.1851 23.4097ZM76.3327 33.3987C76.8295 37.8773 68.4815 37.9713 68.4815 31.6103C68.4815 28.277 70.834 26.931 72.7923 25.8105C73.8995 25.177 74.8807 24.6155 75.2395 23.8078L76.3327 33.3987ZM126.475 13.6702H125.68C125.426 14.575 124.849 14.4501 123.577 14.1744C122.614 13.9656 121.251 13.6702 119.326 13.6702C111.774 13.6702 108.94 17.1485 109.337 21.2232C109.734 25.3774 113.512 27.0383 116.958 28.5532C119.985 29.8836 122.755 31.1014 122.755 33.7968C122.755 35.6351 121.459 38.1199 117.881 38.1199C114.846 38.1199 113.703 36.7783 113.703 35.6351C113.654 34.4421 114.846 32.6037 116.536 33.4486C117.331 30.4172 114.896 28.4791 112.511 28.529C111.02 28.529 109.578 29.324 109.082 31.1623C108.088 34.89 111.666 38.9149 118.326 38.9149C125.878 38.9149 130.451 35.4367 130.451 30.3673C130.451 30.2067 130.444 30.0495 130.43 29.8956C131.027 31.8997 132.114 33.7306 133.601 35.2179C135.367 36.9832 137.616 38.1853 140.064 38.6723C142.513 39.1594 145.051 38.9094 147.357 37.9541C149.664 36.9987 151.635 35.3809 153.022 33.3052C154.409 31.2294 155.149 28.789 155.149 26.2926C155.145 22.9463 153.813 19.7385 151.447 17.3723C149.081 15.0062 145.873 13.6749 142.527 13.6702C140.03 13.6702 137.59 14.4105 135.514 15.7975C133.438 17.1845 131.821 19.1558 130.865 21.4622C129.935 23.708 129.674 26.1733 130.11 28.5617C129.016 25.8207 125.475 24.2801 122.255 22.8794C119.705 21.7696 117.356 20.7477 116.586 19.2862C115.489 17.1485 116.387 14.4652 119.319 14.4652C123.394 14.4652 125.282 16.9001 126.425 21.8697L127.27 21.8209L126.475 13.6702ZM139.5 15.1616C136.965 15.8068 136.915 21.1745 138.605 27.3359C140.245 33.4985 142.978 38.1199 145.513 37.4247C148.098 36.7284 148.098 31.3619 146.458 25.1993C144.916 19.4348 142.432 15.0119 139.997 15.0618C139.828 15.0756 139.661 15.1091 139.5 15.1616ZM173.586 13.6679C170.804 13.6679 168.617 14.8134 167.225 16.4533L167.235 13.6668H166.44C166.44 13.6668 161.521 18.0398 154.613 18.0398V18.8348C157.396 19.0332 158.291 21.3195 158.291 25.5939V31.8053C158.291 35.8347 157.394 37.7241 154.809 37.7241V38.5191H170.709V37.7288C168.072 37.7288 167.227 35.8347 167.227 31.8099V24.5552C167.227 18.9891 167.625 16.0076 170.557 15.6096C173.787 15.2115 175.03 18.6375 175.378 21.771L176.273 30.5681C176.294 30.7862 176.316 31.0145 176.337 31.244L176.338 31.2456C176.365 31.5371 176.393 31.8306 176.421 32.1082C176.673 35.6351 175.378 37.7241 172.843 37.7241V38.5191H188.743V37.7207C186.606 37.7207 186.11 36.776 185.463 32.1047L184.32 22.6623C183.625 18.2394 181.19 13.6679 173.586 13.6679ZM219.161 7.32435C221.128 5.00322 224.22 3.39004 228.155 3.39004C238.904 3.39004 242.346 9.85323 243.33 16.1064L244.946 29.4529C245.859 36.0576 246.561 37.3923 249.588 37.3923V38.5192H227.101V37.3946C230.683 37.3946 232.51 34.4445 232.16 29.4552C232.121 29.0707 232.082 28.6651 232.044 28.2614L232.043 28.2565L232.043 28.2561C232.011 27.9243 231.98 27.594 231.948 27.278L230.683 14.8437C230.191 10.4173 228.435 5.56957 223.869 6.13244C219.724 6.69416 219.161 10.9093 219.161 18.7826V29.0397C219.161 34.7265 220.356 37.3958 224.08 37.3958V38.5192H201.597V37.3946C205.251 37.3946 206.516 34.7253 206.516 29.0385V20.2519C206.516 14.2088 205.251 10.9778 201.316 10.697V9.57236C211.083 9.57236 218.038 3.39004 218.038 3.39004H219.161V7.32435ZM263.913 31.8088V28.7275V13.6668H263.115C263.115 13.6668 258.196 18.0398 251.288 18.0398V18.8348C254.071 19.0333 254.966 21.3196 254.966 25.594V31.8053C254.966 36.0832 254.171 37.7242 250.493 37.7242V38.5192H268.386V37.7277C265.056 37.7277 263.913 36.082 263.913 31.8088ZM262.365 8.84464C263.336 7.88741 263.892 6.58636 263.913 5.22255C263.913 3.83825 263.363 2.51057 262.385 1.53129C261.406 0.552006 260.079 0.00123049 258.695 0C255.863 0 253.527 2.3397 253.527 5.22255C253.547 6.58636 254.103 7.88741 255.075 8.84464C256.047 9.80187 257.356 10.3384 258.72 10.3384C260.084 10.3384 261.393 9.80187 262.365 8.84464ZM291.541 23.664C289.703 27.4404 282.845 25.999 284.137 20.831C289.011 20.831 288.46 14.47 282.695 14.47C279.316 14.47 277.379 19.5881 278.322 25.999C279.664 34.7949 288.758 38.771 293.678 30.2734L294.224 30.8699C289.255 43.3425 270.421 40.6094 269.128 27.589C268.483 20.1347 272.806 13.675 282.795 13.675C290.398 13.6703 294.026 18.59 291.541 23.664ZM316.797 33.3062C318.184 31.2301 318.924 28.7894 318.924 26.2926C318.919 22.9464 317.587 19.7388 315.221 17.3727C312.855 15.0066 309.647 13.6752 306.301 13.6702C303.804 13.67 301.364 14.4102 299.288 15.7972C297.211 17.1842 295.593 19.1557 294.638 21.4624C293.682 23.7691 293.432 26.3073 293.919 28.7562C294.406 31.205 295.608 33.4544 297.374 35.2199C299.139 36.9854 301.389 38.1877 303.838 38.6747C306.286 39.1617 308.825 38.9117 311.131 37.9561C313.438 37.0005 315.41 35.3823 316.797 33.3062ZM302.375 27.3359C300.685 21.1745 300.735 15.8068 303.27 15.1616C303.431 15.109 303.598 15.0755 303.767 15.0618C306.201 15.0119 308.686 19.4348 310.226 25.1993C311.866 31.3619 311.866 36.7284 309.283 37.4247C306.748 38.1199 304.015 33.4985 302.375 27.3359ZM331.794 13.6703V31.8088C331.794 36.082 332.937 37.7277 336.267 37.7277V38.5192H318.377V37.7242C322.054 37.7242 322.849 36.0832 322.849 31.8053V11.9306C322.849 7.65741 321.955 5.3711 319.172 5.17264V4.37765C326.08 4.37765 330.999 0.003479 330.999 0.003479H331.794V13.6703ZM359.027 17.5964C357.437 15.5086 354.754 13.7689 350.281 13.6702L349.632 13.6714C339.845 13.7747 336.363 20.181 337.06 27.5854C337.127 28.4107 337.277 29.2272 337.507 30.0226C340.736 40.9053 357.485 42.4952 362.156 30.8675L361.559 30.271C357.733 36.5299 349.088 35.287 346.651 27.8338C346.594 27.6931 346.554 27.5372 346.512 27.3743C346.479 27.2484 346.445 27.1183 346.402 26.9877L355.397 25.9943C355.525 25.9684 355.681 25.9426 355.835 25.9169C355.979 25.893 356.122 25.8692 356.242 25.8458C361.015 25.0009 361.164 20.3818 359.027 17.5964ZM346.23 26.0941C346.217 26.0567 346.205 26.0192 346.205 25.9943C345.311 20.0812 346.255 14.4652 349.839 14.4606C352.373 14.4606 353.268 17.5918 353.566 20.7717C353.71 22.566 353.064 25.4477 347.996 25.9943L346.255 26.1939C346.255 26.169 346.242 26.1315 346.23 26.0941Z" fill="#FF5C00"/>
</svg>
