<svg width="233" height="48" viewBox="0 0 233 48" fill="none" xmlns="http://www.w3.org/2000/svg">
<g clip-path="url(#clip0_7_358)">
<path d="M16.9408 11.0848V16.6878H3.91754V16.3219C4.30718 15.9592 4.60688 15.5104 4.79284 15.0114C4.97879 14.5124 5.04588 13.9768 4.98875 13.4473V3.50794C4.98875 1.82649 4.52568 1.0227 3.91754 0.63304V0.267456H10.3196V0.63304C9.92307 0.99058 9.61861 1.43863 9.43212 1.93914C9.24562 2.43965 9.18261 2.97784 9.24843 3.50794V13.4715C9.24843 15.177 9.88113 15.8585 11.5122 15.8585H11.5853C14.2386 15.8585 15.8697 13.7635 16.576 11.084L16.9408 11.0848Z" fill="#FF5C00"/>
<path d="M36.0447 11.8401C36.6157 13.6172 37.7106 15.1797 39.1855 16.3222V16.688H31.2249V16.3222C32.3451 16.0547 32.7586 14.4713 31.7363 12.0346H26.0896L25.8945 12.4981C25.5689 13.1601 25.5032 13.9202 25.7104 14.6283C25.9176 15.3365 26.3826 15.9411 27.0136 16.3227V16.6886H21.5367V16.3227C22.996 15.4593 24.1331 14.1418 24.7746 12.5713L30.4458 0.000488281H30.9815L36.0447 11.8407V11.8401ZM31.3958 11.2068L28.8156 5.16467L26.4057 11.2068H31.3958Z" fill="#FF5C00"/>
<path d="M51.838 0.2677C55.4157 0.2677 57.5341 1.82676 57.5341 4.36129C57.5124 5.39699 57.0933 6.38461 56.3636 7.11936C55.634 7.85411 54.6497 8.27958 53.615 8.30757C55.6356 8.50285 58.1187 9.47759 58.1187 12.1814C58.1187 14.9348 56.3663 16.6886 51.7408 16.6886H44.5356V16.3227C45.1444 15.9331 45.6069 15.1293 45.6069 13.4481V3.26568C45.6674 2.77204 45.6007 2.2711 45.4132 1.81053C45.2257 1.34996 44.9236 0.945073 44.5356 0.634345V0.268761L51.838 0.2677ZM49.8658 1.09622V7.9421L50.6448 7.86888C52.0324 7.72277 52.8845 6.72317 52.8845 4.58023C52.8845 1.65642 51.7397 1.09622 50.3043 1.09622H49.8658ZM51.521 15.8593C52.6657 15.8593 53.4443 15.0799 53.4443 12.1809C53.4443 9.96432 52.6653 8.79531 50.7668 8.64856L49.8658 8.57561V13.7399C49.8658 15.226 50.5475 15.8592 51.4969 15.8592L51.521 15.8593Z" fill="#FF5C00"/>
<path d="M63.7121 8.42919C63.6676 7.29156 63.8624 6.15727 64.2839 5.0998C64.7053 4.04232 65.3441 3.08525 66.1587 2.29058C66.9733 1.49591 67.9457 0.881346 69.0127 0.486743C70.0798 0.0921401 71.2178 -0.0736967 72.353 -7.41966e-05C77.7086 -7.41966e-05 80.9947 3.5572 80.9947 8.42919C80.9947 13.5696 77.6355 16.9556 72.353 16.9556C66.8761 16.9556 63.7121 13.813 63.7121 8.42919ZM76.321 8.40499C76.321 4.50709 75.1774 0.828678 72.353 0.828678C69.4075 0.828678 68.3859 4.50709 68.3859 8.40499C68.3859 12.3513 69.5294 16.1279 72.353 16.1279C75.2985 16.1279 76.321 12.3513 76.321 8.40499Z" fill="#FF5C00"/>
<path d="M95.1814 13.5696C94.3 12.2697 93.4953 10.9194 92.7714 9.52548V9.18472C93.764 8.95151 94.6386 8.36658 95.2337 7.53802C95.8287 6.70946 96.1039 5.6933 96.0084 4.67742C96.0084 2.7044 95.3516 1.09622 92.9417 1.09622H92.406V13.4476C92.331 13.9781 92.3897 14.519 92.5768 15.021C92.7639 15.5231 93.0734 15.9704 93.4772 16.3222V16.688H87.0752V16.3222C87.6839 15.9326 88.1464 15.1288 88.1464 13.4476V3.50819C88.1464 1.77859 87.635 0.999041 87.0752 0.633324V0.2677H93.8426C98.6378 0.2677 100.61 2.02216 100.61 4.75069C100.589 5.77781 100.189 6.7609 99.4884 7.51162C98.7877 8.26235 97.8348 8.72791 96.8123 8.81914L97.8346 10.2808C99.2256 12.3529 100.878 14.2362 102.752 15.8842L102.655 16.2492C101.947 16.7118 101.113 16.9418 100.269 16.9073C98.2482 16.9073 96.8365 15.8352 95.1814 13.5696Z" fill="#FF5C00"/>
<path d="M121.15 11.8401C121.72 13.617 122.815 15.1796 124.29 16.3222V16.688H116.329V16.3222C117.449 16.0547 117.863 14.4713 116.841 12.0346H111.194L110.999 12.4981C110.674 13.1601 110.608 13.9202 110.815 14.6283C111.022 15.3365 111.487 15.9411 112.118 16.3227V16.6886H106.641V16.3227C108.101 15.4592 109.238 14.1418 109.879 12.5713L115.55 0.000488281H116.086L121.15 11.8407V11.8401ZM116.5 11.2068L113.92 5.16467L111.51 11.2068H116.5Z" fill="#FF5C00"/>
<path d="M141.471 0.2677V5.35972H141.106C140.522 3.80082 139.451 1.09622 136.724 1.09622H136.238V13.4476C136.169 13.9777 136.231 14.5166 136.417 15.0175C136.604 15.5184 136.909 15.9662 137.308 16.3222V16.688H130.906V16.3222C131.514 15.9326 131.978 15.1288 131.978 13.4476V1.09622H131.563C128.838 1.09622 127.766 3.80082 127.181 5.35972H126.817V0.2677H141.471Z" fill="#FF5C00"/>
<path d="M146.211 8.42922C146.167 7.2915 146.362 6.15712 146.783 5.0996C147.205 4.04208 147.844 3.08497 148.659 2.29031C149.473 1.49564 150.446 0.881138 151.513 0.486584C152.58 0.0920306 153.718 -0.0737439 154.854 -3.64427e-05C160.209 -3.64427e-05 163.495 3.55724 163.495 8.42922C163.495 13.5696 160.136 16.9557 154.854 16.9557C149.377 16.9557 146.211 13.813 146.211 8.42922ZM158.822 8.40502C158.822 4.50713 157.678 0.828716 154.854 0.828716C151.908 0.828716 150.885 4.50713 150.885 8.40502C150.885 12.3513 152.03 16.1279 154.854 16.1279C157.799 16.1279 158.822 12.3513 158.822 8.40502Z" fill="#FF5C00"/>
<path d="M174.906 13.4476C174.838 13.9778 174.899 14.5168 175.086 15.0178C175.273 15.5188 175.579 15.9666 175.978 16.3222V16.688H169.576V16.3222C170.136 15.9574 170.646 15.1288 170.646 13.4476V3.50819C170.646 1.77859 170.136 0.999041 169.576 0.633324V0.2677H175.978V0.633324C175.576 0.987121 175.268 1.43466 175.082 1.9362C174.895 2.43775 174.834 2.97774 174.906 3.50819V13.4476Z" fill="#FF5C00"/>
<path d="M190.653 13.5696C189.771 12.2697 188.966 10.9193 188.242 9.52548V9.18472C189.235 8.95164 190.11 8.36675 190.705 7.53818C191.3 6.7096 191.575 5.69338 191.48 4.67742C191.48 2.7044 190.822 1.09622 188.413 1.09622H187.877V13.4476C187.802 13.9781 187.861 14.519 188.048 15.021C188.235 15.523 188.545 15.9703 188.948 16.3222V16.688H182.547V16.3222C183.155 15.9326 183.617 15.1288 183.617 13.4476V3.50819C183.617 1.77859 183.106 0.999041 182.547 0.633324V0.2677H189.314C194.109 0.2677 196.081 2.02216 196.081 4.75069C196.059 5.77771 195.66 6.76075 194.959 7.51146C194.259 8.26218 193.306 8.72779 192.284 8.81914L193.306 10.2808C194.697 12.353 196.35 14.2364 198.224 15.8842L198.126 16.2492C197.418 16.7118 196.584 16.9419 195.74 16.9073C193.719 16.9073 192.308 15.8352 190.653 13.5696Z" fill="#FF5C00"/>
<path d="M215.817 12.3031V16.6878H203.306V16.3219C203.865 15.9571 204.376 15.202 204.376 13.4473V3.50794C204.376 1.77835 203.865 0.998758 203.306 0.63304V0.267456H215.234V4.65309H214.868C214.508 3.63883 213.852 2.7567 212.983 2.12205C212.115 1.4874 211.075 1.12977 210 1.09593H208.637V8.01509L209.707 7.91778C210.371 7.81033 210.993 7.52474 211.508 7.09138C212.022 6.65802 212.409 6.09314 212.628 5.4569H212.994V11.1816H212.628C212.4 10.5532 212.01 9.99671 211.497 9.56876C210.983 9.14082 210.366 8.85676 209.707 8.74563L208.637 8.64832V13.472C208.637 15.1775 209.27 15.859 210.584 15.859H210.633C211.699 15.8126 212.726 15.4495 213.585 14.8161C214.443 14.1827 215.094 13.3077 215.453 12.3028L215.817 12.3031Z" fill="#FF5C00"/>
<path d="M226.718 16.0787C228.204 16.0787 229.104 15.3233 229.104 14.0567C229.104 10.4512 221.169 10.5975 221.169 4.89686C221.169 1.99789 223.7 0.0731558 226.865 0.0731558C228.545 0.0267757 230.205 0.448311 231.66 1.29079V5.35967H231.296C229.931 1.75373 228.008 0.901672 226.694 0.901672C226.426 0.867633 226.154 0.891584 225.897 0.971953C225.639 1.05232 225.402 1.1872 225.201 1.36743C225 1.54766 224.84 1.76902 224.733 2.0165C224.625 2.26397 224.572 2.53176 224.576 2.80168C224.576 6.23667 232.633 6.50419 232.633 11.7911C232.633 14.8121 230.492 16.9314 226.499 16.9314C224.703 16.9382 222.935 16.4853 221.363 15.6158V11.3771H221.729C223.091 14.325 224.844 16.0787 226.718 16.0787Z" fill="#FF5C00"/>
<path d="M12.8291 44.004C12.8355 44.4575 12.9336 44.905 13.1175 45.3195C13.3014 45.7341 13.5674 46.107 13.8993 46.4159V46.7816L8.81213 47.9015V45.5388C8.39053 46.2368 7.80334 46.8199 7.10262 47.2364C6.40191 47.6529 5.60931 47.8899 4.79515 47.9264C1.72872 47.9264 -3.8147e-06 45.222 -3.8147e-06 41.9575C-3.8147e-06 37.816 2.26381 35.0874 6.06084 35.0874C7.03639 35.0565 7.99754 35.3288 8.81213 35.867V33.1143C8.84001 32.7141 8.75421 32.3141 8.56462 31.9605C8.37503 31.607 8.08939 31.3144 7.74069 31.1164V30.7505L12.8291 29.2163V44.004ZM8.81213 38.6932C8.71437 36.6711 7.61977 35.9164 6.64479 35.9164C5.57463 35.9164 4.16233 36.8905 4.16233 40.7402C4.16233 43.3225 4.96622 45.3688 7.01008 45.3688C7.63177 45.3479 8.24361 45.2073 8.81213 44.9547V38.6932Z" fill="#FF5C00"/>
<path d="M28.2076 38.7181C28.221 38.2616 28.1318 37.8078 27.9466 37.3904C27.7614 36.973 27.4848 36.6025 27.1374 36.3064V35.9406L32.2246 34.8207V44.0041C32.2112 44.4607 32.3006 44.9146 32.486 45.332C32.6715 45.7495 32.9483 46.1199 33.296 46.4159V46.7816L28.2076 47.9016V45.5389C27.7439 46.2358 27.1238 46.8146 26.3969 47.2292C25.67 47.6437 24.8563 47.8825 24.0208 47.9264C21.465 47.9264 20.5402 46.1721 20.5402 43.6629V38.7177C20.5536 38.2612 20.4644 37.8074 20.2792 37.39C20.094 36.9726 19.8175 36.6021 19.4701 36.306V35.9403L24.5572 34.8203V43.3958C24.5572 44.857 25.3354 45.369 26.3579 45.369C26.995 45.3483 27.6225 45.2078 28.2076 44.9548V38.7182V38.7181Z" fill="#FF5C00"/>
<path d="M58.3857 31.0684C60.2608 31.0381 62.1152 31.4642 63.7893 32.3102V37.0366H63.424C62.5236 34.0888 60.7704 31.8963 58.4101 31.8963C55.9032 31.8963 54.0523 34.2841 54.0047 39.5458C54.0523 44.8085 56.073 47.1712 58.751 47.1712C61.3557 47.1712 62.6458 45.0519 63.5217 42.0309H63.887V46.7575C62.1924 47.6433 60.2962 48.0715 58.3857 47.9999C53.4928 47.9999 49.3305 45.1741 49.3305 39.5458C49.3305 33.9176 53.4928 31.0684 58.3857 31.0684Z" fill="#FF5C00"/>
<path d="M83.2336 42.8597C83.8046 44.6367 84.8996 46.1992 86.3746 47.3418V47.7076H78.414V47.3418C79.5343 47.0741 79.9472 45.4909 78.9246 43.0542H73.278L73.0825 43.5176C72.757 44.1798 72.6915 44.94 72.8989 45.6481C73.1063 46.3563 73.5716 46.9608 74.2028 47.3423V47.7081H68.7259V47.3423C70.1848 46.4784 71.3217 45.1611 71.9634 43.5908L77.6358 31.02H78.1709L83.2336 42.8602V42.8597ZM78.5851 42.2263L76.0048 36.1842L73.5944 42.2263H78.5851Z" fill="#FF5C00"/>
<path d="M98.5156 31.2871C102.825 31.2871 105.405 33.2609 105.405 36.5256C105.405 39.9846 103.043 42.0309 99.0275 42.0799C98.7587 42.0799 98.4667 42.0799 98.1747 42.0558L98.1259 41.69C99.9266 40.9347 100.731 39.6191 100.731 36.5256C100.731 33.0173 99.0995 32.1156 97.4197 32.1156H97.03V44.4674C96.9672 44.9973 97.0317 45.5345 97.218 46.0345C97.4043 46.5344 97.7072 46.9827 98.1014 47.342V47.7078H91.6997V47.342C92.3081 46.9524 92.7699 46.1486 92.7699 44.4674V34.528C92.7699 32.7984 92.2592 32.0188 91.6997 31.6531V31.2875L98.5156 31.2871Z" fill="#FF5C00"/>
<path d="M110.756 40.3499H116.769V41.6655H110.756V40.3499Z" fill="#FF5C00"/>
<path d="M135.508 35.6729H135.143C134.783 34.6587 134.126 33.7766 133.258 33.142C132.389 32.5074 131.349 32.1497 130.275 32.1157H128.424V39.1561L129.373 39.059C130.082 38.9738 130.756 38.7009 131.326 38.2685C131.895 37.8362 132.339 37.2598 132.612 36.5988H132.977V42.3235H132.612C132.319 41.6785 131.869 41.1174 131.303 40.6918C130.737 40.2661 130.073 39.9896 129.373 39.8876L128.424 39.7895V44.4675C128.349 44.998 128.408 45.5389 128.595 46.0409C128.782 46.5429 129.091 46.9902 129.495 47.3421V47.7079H123.093V47.3421C123.653 46.9773 124.164 46.2221 124.164 44.4675V34.5281C124.164 32.7985 123.653 32.0189 123.093 31.6532V31.2876H135.508V35.6732V35.6729Z" fill="#FF5C00"/>
<path d="M153.736 43.3225V47.7074H141.224V47.3416C141.784 46.9768 142.296 46.2217 142.296 44.467V34.5276C142.296 32.798 141.784 32.0184 141.224 31.6527V31.2871H153.152V35.6728H152.787C152.427 34.6584 151.77 33.7761 150.901 33.1414C150.033 32.5068 148.993 32.1493 147.918 32.1156H146.555V39.0348L147.626 38.9373C148.29 38.8299 148.912 38.5443 149.426 38.111C149.941 37.6776 150.328 37.1128 150.547 36.4766H150.912V42.2018H150.547C150.319 41.5734 149.929 41.0169 149.415 40.5889C148.902 40.161 148.285 39.877 147.626 39.7658L146.555 39.6685V44.4921C146.555 46.1978 147.187 46.8792 148.502 46.8792H148.551C149.617 46.8328 150.644 46.4697 151.503 45.8364C152.362 45.203 153.012 44.328 153.372 43.323L153.736 43.3225Z" fill="#FF5C00"/>
<path d="M167.68 44.5891C166.798 43.2895 165.993 41.9391 165.27 40.545V40.2042C166.262 39.9711 167.137 39.3863 167.732 38.5577C168.327 37.7291 168.603 36.7129 168.507 35.6969C168.507 33.7239 167.85 32.1157 165.439 32.1157H164.904V44.4675C164.829 44.998 164.888 45.539 165.075 46.041C165.262 46.5431 165.572 46.9904 165.976 47.3421V47.7079H159.574V47.3421C160.183 46.9525 160.644 46.1486 160.644 44.4675V34.5281C160.644 32.7985 160.134 32.0189 159.574 31.6532V31.2876H166.341C171.136 31.2876 173.108 33.0421 173.108 35.7706C173.087 36.7976 172.687 37.7806 171.987 38.5313C171.286 39.282 170.333 39.7477 169.311 39.839L170.332 41.3007C171.724 43.3723 173.377 45.2556 175.25 46.9041L175.153 47.2691C174.446 47.7317 173.612 47.9618 172.767 47.9272C170.747 47.9272 169.334 46.8551 167.68 44.5895V44.5891Z" fill="#FF5C00"/>
<path d="M188.439 44.5891C187.558 43.2892 186.753 41.9388 186.029 40.545V40.2042C187.021 39.9711 187.896 39.3863 188.491 38.5577C189.086 37.7291 189.362 36.7129 189.266 35.6969C189.266 33.7239 188.609 32.1157 186.2 32.1157H185.663V44.4675C185.588 44.998 185.647 45.539 185.834 46.041C186.021 46.5431 186.331 46.9904 186.735 47.3421V47.7079H180.333V47.3421C180.941 46.9525 181.403 46.1486 181.403 44.4675V34.5281C181.403 32.7985 180.893 32.0189 180.333 31.6532V31.2876H187.1C191.895 31.2876 193.867 33.0421 193.867 35.7706C193.846 36.7977 193.447 37.7808 192.746 38.5316C192.045 39.2824 191.092 39.7479 190.07 39.839L191.093 41.3007C192.483 43.3729 194.136 45.2563 196.01 46.9041L195.912 47.2691C195.205 47.7317 194.371 47.9618 193.526 47.9272C191.505 47.9272 190.094 46.8551 188.439 44.5895V44.5891Z" fill="#FF5C00"/>
<path d="M213.603 43.3225V47.7074H201.092V47.3416C201.651 46.9768 202.163 46.2217 202.163 44.467V34.5276C202.163 32.798 201.651 32.0184 201.092 31.6527V31.2871H213.019V35.6728H212.654C212.294 34.6585 211.637 33.7763 210.769 33.1417C209.9 32.507 208.86 32.1494 207.786 32.1156H206.422V39.0348L207.494 38.9373C208.157 38.8299 208.78 38.5443 209.294 38.111C209.808 37.6776 210.196 37.1128 210.415 36.4766H210.78V42.2018H210.415C210.187 41.5734 209.796 41.0169 209.283 40.5889C208.77 40.161 208.152 39.877 207.494 39.7658L206.422 39.6685V44.4921C206.422 46.1978 207.055 46.8792 208.37 46.8792H208.418C209.484 46.8329 210.512 46.4699 211.37 45.8365C212.228 45.2031 212.879 44.328 213.238 43.323L213.603 43.3225Z" fill="#FF5C00"/>
<path d="M233 31.2871V36.3791H232.635C232.051 34.8201 230.979 32.1156 228.252 32.1156H227.766V44.4674C227.698 44.9975 227.759 45.5363 227.946 46.0373C228.132 46.5382 228.438 46.986 228.836 47.342V47.7078H222.435V47.342C223.043 46.9524 223.506 46.1486 223.506 44.4674V32.116H223.092C220.366 32.116 219.295 34.8205 218.71 36.3795H218.346V31.2875L233 31.2871Z" fill="#FF5C00"/>
</g>
<defs>
<clipPath id="clip0_7_358">
<rect width="233" height="48" fill="white"/>
</clipPath>
</defs>
</svg>
