<svg width="301" height="45" viewBox="0 0 301 45" fill="none" xmlns="http://www.w3.org/2000/svg">
<g clip-path="url(#clip0_7_269)">
<path d="M68.5386 35.8274V18.1376L83.5223 18.1376C87.8354 18.1376 90.3237 19.9164 90.3237 22.9795C90.3237 24.7583 89.2389 26.1662 87.4159 26.7844V26.834C89.5603 27.427 90.817 28.9342 90.817 30.9846C90.817 34.0233 88.3278 35.8265 84.04 35.8265H68.5386V35.8274ZM75.0204 32.2942H81.6984C83.3252 32.2942 84.3109 31.5776 84.3109 30.3917C84.3109 29.2058 83.3252 28.4396 81.6984 28.4396H75.0204V32.2932V32.2942ZM75.0447 25.2781H81.3536C82.8813 25.2781 83.8185 24.6112 83.8185 23.4749C83.8185 22.3387 82.8822 21.6718 81.3536 21.6718L75.0447 21.6718V25.279V25.2781Z" fill="#FF5C00"/>
<path d="M93.8878 35.8274V18.1376H100.394V31.0586L111.163 31.0586V35.8265H93.8878V35.8274Z" fill="#FF5C00"/>
<path d="M246.602 18.1376L241.138 29.8159L236.708 18.1376H229.561L225.226 29.972L219.594 18.1376H212.842L221.665 35.8274H228.417H228.466L233.134 23.1528H233.184L237.793 35.8022L237.78 35.8274H237.803H244.532L253.354 18.1376H246.602Z" fill="#FF5C00"/>
<path d="M114.045 35.8274L122.868 18.1376L130.409 18.1376L138.985 35.8265H132.257L130.901 32.7635H122.128L120.797 35.8265H114.044L114.045 35.8274ZM123.361 29.1318H129.67L126.565 22.1158H126.515L123.361 29.1318Z" fill="#FF5C00"/>
<path d="M145.966 26.9819C145.99 24.1165 148.529 22.288 152.522 22.288C155.676 22.288 158.018 23.6716 158.51 25.87L164.523 24.8078C163.586 20.4596 158.88 17.7178 152.349 17.7178C144.463 17.7178 139.46 21.1274 139.46 26.9828C139.46 32.8382 144.463 36.2479 152.349 36.2479C158.879 36.2479 163.586 33.5052 164.523 29.1569L158.51 28.0947C158.018 30.2932 155.676 31.6767 152.522 31.6767C148.529 31.6767 145.991 29.8482 145.966 26.9828V26.9819Z" fill="#FF5C00"/>
<path d="M167.144 35.8274V18.1376H173.651V24.4379L173.7 24.4623L181.167 18.1376H189.299L180.798 25.2772L189.349 35.8265H181.463L176.287 29.0325L173.651 31.2563V35.8265H167.144V35.8274Z" fill="#FF5C00"/>
<path d="M249.463 35.8274L258.285 18.1376L265.827 18.1376L274.402 35.8265H267.675L266.319 32.7635H257.545L256.215 35.8265H249.462L249.463 35.8274ZM258.779 29.1318H265.088L261.983 22.1158H261.933L258.779 29.1318Z" fill="#FF5C00"/>
<path d="M277.564 35.8274V18.1376H285.376L294.84 29.6255H294.864V18.1376H301V35.8274H293.188L283.724 24.1906H283.7V35.8274H277.564Z" fill="#FF5C00"/>
<path d="M203.809 24.7339L200.532 24.363C198.24 24.141 197.254 23.7457 197.279 23.0788C197.303 22.1402 199.037 21.6122 201.576 21.6122C204.115 21.6122 205.973 22.299 207.589 23.4298L210.9 20.1023C208.681 18.6998 205.28 17.5934 201.616 17.5934C195.258 17.5934 190.97 19.7431 190.946 23.5472C190.946 26.6851 193.361 28.2411 198.98 28.834L202.233 29.2049C204.895 29.4766 206.029 29.9711 206.029 30.7121C206.029 31.676 204.451 32.2436 201.938 32.2436C199.048 32.2436 196.079 31.1101 194.102 29.5298L190.658 32.9828C193.028 34.7796 197.388 36.3455 201.593 36.3455C208.149 36.3455 212.363 33.8501 212.337 30.1688C212.337 26.9568 209.774 25.326 203.81 24.7339H203.809Z" fill="#FF5C00"/>
</g>
<path d="M40.3254 44.8137L44.7911 44.8137C45.0867 33.2577 38.3858 23.4166 29.9531 16.2565C28.9632 15.4076 28.1328 14.3885 27.5009 13.2474C26.2955 10.8853 27.4039 7.3353 29.7407 6.07801C32.8764 4.20131 36.5201 6.54025 38.4781 9.3553L44.4817 16.7234C44.5066 16.7512 44.5398 16.7703 44.5763 16.778C44.6129 16.7857 44.6509 16.7815 44.6849 16.766C44.7189 16.7505 44.7471 16.7246 44.7653 16.692C44.7836 16.6594 44.791 16.6218 44.7865 16.5847C44.8188 16.1502 43.5303 9.6881 43.9321 9.48009C45.5438 5.20437 42.6714 2.90705 39.6835 1.20138C28.66 -3.88326 16.7638 8.20432 25.6121 18.1286C33.9939 25.8573 40.173 32.606 40.3254 44.8137Z" fill="#FF5C00"/>
<path d="M31.1492 30.2809C28.5766 26.4578 25.3572 23.1134 21.6359 20.3982C17.7204 17.479 13.4594 15.0555 8.94991 13.1826L5.62487 16.5107L5.69413 16.5708C5.75417 16.6217 11.7577 21.6555 15.6693 27.2024C17.6472 29.9521 19.2399 32.96 20.4028 36.1421L5.07069 20.8003L1.81492 24.036L9.13463 38.7121C6.19489 37.2714 3.13923 36.0807 0 35.1529L0 39.6736C3.57343 41.0537 7.00652 42.7734 10.2522 44.8091H16.9623L16.8884 44.6473L11.73 33.9557L21.719 44.8091H26.3371C26.3371 43.9216 26.3371 43.0202 26.2586 42.1281C26.1145 40.3467 25.8053 38.5826 25.335 36.8586C24.2174 32.7723 21.8668 28.1222 18.9758 24.0314C18.9758 24.0314 25.4412 29.6661 27.4408 32.7677C29.8268 36.3314 31.1117 40.5193 31.1353 44.8091L35.6149 44.8091C35.5887 39.6318 34.0351 34.5775 31.1492 30.2809Z" fill="#FF5C00"/>
<defs>
<clipPath id="clip0_7_269">
<rect width="232.461" height="18.7521" fill="white" transform="translate(68.5386 17.5942)"/>
</clipPath>
</defs>
</svg>
